<svg xmlns="http://www.w3.org/2000/svg" width="40" height="40" viewBox="0 0 40 40"><defs><style>.a{fill:#fff;}.b{fill:none;}.c,.d{stroke:none;}.d{fill:#fff;}</style></defs><g transform="translate(14.518 7.692)"><path class="a" d="M16.271,31.869h4.9V19.595h3.421l.364-4.11H21.172v-2.34c0-.969.195-1.352,1.132-1.352h2.653V7.527H21.563c-3.647,0-5.292,1.606-5.292,4.681v3.277h-2.55v4.161h2.55Z" transform="translate(-13.721 -7.527)"/></g><g class="b"><path class="c" d="M20,0A20.129,20.129,0,0,1,32.18,4.135,20,20,0,1,1,20,0Z"/><path class="d" d="M 20 2 C 15.19202041625977 2 10.67182922363281 3.872329711914062 7.272079467773438 7.272079467773438 C 3.872329711914062 10.67182922363281 2 15.19202041625977 2 20 C 2 24.80797958374023 3.872329711914062 29.32817077636719 7.272079467773438 32.72792053222656 C 10.67182922363281 36.12767028808594 15.19202041625977 38 20 38 C 24.80797958374023 38 29.32817077636719 36.12767028808594 32.72792053222656 32.72792053222656 C 36.12767028808594 29.32817077636719 38 24.80797958374023 38 20 C 38 17.15755081176758 37.32553863525391 14.3236198425293 36.04954147338867 11.80459022521973 C 34.82812881469727 9.393329620361328 33.07706069946289 7.296070098876953 30.98414993286133 5.738430023193359 C 27.65750122070312 3.257789611816406 23.96188926696777 2 20 2 M 20 0 C 24.4735107421875 0 28.60396957397461 1.468730926513672 32.17971801757812 4.135120391845703 C 36.82994842529297 7.596031188964844 40 13.42781066894531 40 20 C 40 31.04570007324219 31.04570007324219 40 20 40 C 8.954299926757812 40 0 31.04570007324219 0 20 C 0 8.954299926757812 8.954299926757812 0 20 0 Z"/></g></svg>